<svg width="40" height="40" viewBox="0 0 40 40" fill="none" xmlns="http://www.w3.org/2000/svg">
<path d="M25 5.37036C16.7125 5.37036 10 12.0829 10 20.3704C9.9983 23.5193 10.9882 26.5888 12.8293 29.1434C14.6704 31.698 17.2692 33.608 20.257 34.6024C21.007 34.7329 21.2875 34.2829 21.2875 33.8884C21.2875 33.5329 21.268 32.3524 21.268 31.0954C17.5 31.7899 16.525 30.1774 16.225 29.3329C16.0555 28.9009 15.325 27.5704 14.6875 27.2134C14.1625 26.9329 13.4125 26.2384 14.668 26.2204C15.85 26.2009 16.693 27.3079 16.975 27.7579C18.325 30.0259 20.482 29.3884 21.343 28.9954C21.475 28.0204 21.868 27.3649 22.3 26.9899C18.9625 26.6149 15.475 25.3204 15.475 19.5829C15.475 17.9509 16.0555 16.6024 17.0125 15.5509C16.8625 15.1759 16.3375 13.6384 17.1625 11.5759C17.1625 11.5759 18.418 11.1829 21.2875 13.1149C22.5086 12.776 23.7703 12.6054 25.0375 12.6079C26.3125 12.6079 27.5875 12.7759 28.7875 13.1134C31.6555 11.1634 32.9125 11.5774 32.9125 11.5774C33.7375 13.6399 33.2125 15.1774 33.0625 15.5524C34.018 16.6024 34.6 17.9329 34.6 19.5829C34.6 25.3399 31.0945 26.6149 27.757 26.9899C28.3 27.4579 28.7695 28.3579 28.7695 29.7649C28.7695 31.7704 28.75 33.3829 28.75 33.8899C28.75 34.2829 29.032 34.7509 29.782 34.6009C32.7595 33.5956 35.3469 31.6819 37.1799 29.1291C39.0128 26.5763 39.9991 23.513 40 20.3704C40 12.0829 33.2875 5.37036 25 5.37036Z" fill="url(#paint0_radial_230_1349)"/>
<defs>
<radialGradient id="paint0_radial_230_1349" cx="0" cy="0" r="1" gradientUnits="userSpaceOnUse" gradientTransform="translate(15.9361 11.9307) rotate(34.7857) scale(27.1092 26.8811)">
<stop offset="0.0625" stop-color="#5988FF"/>
<stop offset="0.515625" stop-color="#5988FF"/>
<stop offset="1" stop-color="#0043F0"/>
</radialGradient>
</defs>
</svg>
